<?xml version="1.0" standalone="no"?>
<!DOCTYPE svg PUBLIC "-//W3C//DTD SVG 20010904//EN"
 "http://www.w3.org/TR/2001/REC-SVG-20010904/DTD/svg10.dtd">
<svg version="1.0" xmlns="http://www.w3.org/2000/svg"
 width="164.000000pt" height="164.000000pt" viewBox="0 0 164.000000 164.000000"
 preserveAspectRatio="xMidYMid meet">
<metadata>
Created by potrace 1.11, written by Peter Selinger 2001-2013
</metadata>
<g transform="translate(0.000000,164.000000) scale(0.100000,-0.100000)"
fill="#000000" stroke="none">
<path d="M731 1559 c-74 -72 -135 -156 -146 -202 -8 -32 -14 -33 -157 -31
l-118 1 0 -507 0 -507 215 1 c118 0 215 1 215 3 0 1 -23 25 -51 53 -91 91
-121 202 -92 344 20 98 26 106 49 70 10 -16 75 -85 144 -154 155 -155 175
-190 175 -310 0 -74 -4 -93 -31 -150 -17 -36 -48 -87 -68 -114 -37 -47 -37
-48 -9 -28 57 40 149 149 183 215 19 37 40 67 45 68 6 0 62 2 125 2 l115 2 3
505 2 506 -215 0 -214 0 50 -50 c78 -77 102 -133 103 -236 1 -88 -4 -123 -24
-186 l-12 -36 -14 29 c-8 16 -72 86 -142 155 -155 153 -185 203 -185 313 0 86
26 158 89 250 25 36 43 65 41 65 -2 0 -36 -32 -76 -71z"/>
</g>
</svg>
